<?xml version="1.0" encoding="utf-8"?>


<!-- The icon can be used freely in both personal and commercial projects with no attribution required, but always appreciated. 
You may NOT sub-license, resell, rent, redistribute or otherwise transfer the icon without express written permission from iconmonstr.com -->


<!DOCTYPE svg PUBLIC "-//W3C//DTD SVG 1.1//EN" "http://www.w3.org/Graphics/SVG/1.1/DTD/svg11.dtd">

<svg version="1.1" xmlns="http://www.w3.org/2000/svg" xmlns:xlink="http://www.w3.org/1999/xlink" x="0px" y="0px"

	 width="512px" height="512px" viewBox="0 0 512 512" enable-background="new 0 0 512 512" xml:space="preserve">

<path id="arrow-62-icon" d="M256,90c91.742,0,166,74.245,166,166c0,91.741-74.244,166-166,166c-91.742,0-166-74.245-166-166

	C90,164.259,164.246,90,256,90z M256,50C142.23,50,50,142.229,50,256s92.23,206,206,206c113.771,0,206-92.229,206-206

	S369.771,50,256,50z M303.52,276.929v32.969l77.518-77.386l-77.518-77.385v32.97c0,0-136.162,27.71-163.502,146.774

	C198.227,272.546,303.52,276.929,303.52,276.929z"/>

</svg>

