<?xml version="1.0" encoding="utf-8"?>

<!-- License Agreement at http://iconmonstr.com/license/ -->

<!DOCTYPE svg PUBLIC "-//W3C//DTD SVG 1.1//EN" "http://www.w3.org/Graphics/SVG/1.1/DTD/svg11.dtd">
<svg version="1.1" xmlns="http://www.w3.org/2000/svg" xmlns:xlink="http://www.w3.org/1999/xlink" x="0px" y="0px"
	 width="512px" height="512px" viewBox="0 0 512 512" enable-background="new 0 0 512 512" xml:space="preserve">
<path id="direction-3-icon" d="M428.428,185.988H270.58c8.433-24.373,13.102-51.258,10.524-76.619
	c-4.366-42.967-43.446-54.761-57.521-9.707C206.049,155.785,159.984,229.975,50,229.975c0,0,0,118.646,0,162.41
	c108.793,0,136.914,41.16,193.706,47.555c42.488,4.786,75.721-6.636,80.612-41.023l-13.429,4.742
	c-6.01,1.827-12.363-1.573-14.185-7.588c-1.82-6.018,1.575-12.371,7.594-14.188l12.506-4.521
	c15.642-4.734,17.712-19.271,20.582-40.844l-16.599,5.641c-6.016,1.827-12.369-1.581-14.194-7.598
	c-1.813-6.01,1.582-12.363,7.597-14.183l12.843-4.083c16.162-4.896,17.917-18.077,21.556-41.978l-17.832,5.349
	c-16.528,5.002-24.509-26.534,21.546-26.534h76.125c18.542,0,33.572-15.03,33.572-33.571S446.97,185.988,428.428,185.988z"/>
</svg>
