<?xml version="1.0" encoding="utf-8"?>

<!-- The icon can be used freely in both personal and commercial projects with no attribution required, but always appreciated. 
You may NOT sub-license, resell, rent, redistribute or otherwise transfer the icon without express written permission from iconmonstr.com -->

<!DOCTYPE svg PUBLIC "-//W3C//DTD SVG 1.1//EN" "http://www.w3.org/Graphics/SVG/1.1/DTD/svg11.dtd">
<svg version="1.1" xmlns="http://www.w3.org/2000/svg" xmlns:xlink="http://www.w3.org/1999/xlink" x="0px" y="0px"
	 width="512px" height="512px" viewBox="0 0 512 512" enable-background="new 0 0 512 512" xml:space="preserve">
<path id="key-3-icon" d="M241.21,370.801h-43.874l0.002,43.873l-45.745-0.002v41.345H49.994v-70.458l145.737-145.737
	c4,9.534,8.962,18.622,14.771,27.135L79.994,397.985v28.031h41.599v-41.346l45.744,0.002l-0.002-43.872h61.448l28.655-29.168
	c9.066,5.548,18.794,10.217,29.086,13.854L241.21,370.801z M385.887,174.09c-11.599,11.597-30.402,11.599-41.999,0.001
	c-11.598-11.598-11.598-30.402,0-42.001c11.597-11.598,30.401-11.597,42.001,0C397.484,143.688,397.485,162.492,385.887,174.09z
	 M337.882,55.983c-68.552,0-124.124,55.572-124.124,124.124S269.33,304.23,337.882,304.23s124.124-55.572,124.124-124.124
	S406.434,55.983,337.882,55.983z M337.882,274.23c-51.9,0-94.124-42.224-94.124-94.124s42.224-94.124,94.124-94.124
	s94.124,42.224,94.124,94.124S389.782,274.23,337.882,274.23z"/>
</svg>
