<?xml version="1.0" encoding="UTF-8" standalone="no"?>
<!-- The icon can be used freely in both personal and commercial projects with no attribution required, but always appreciated. 
You may NOT sub-license, resell, rent, redistribute or otherwise transfer the icon without express written permission from iconmonstr.com -->

<svg
   xmlns:dc="http://purl.org/dc/elements/1.1/"
   xmlns:cc="http://creativecommons.org/ns#"
   xmlns:rdf="http://www.w3.org/1999/02/22-rdf-syntax-ns#"
   xmlns:svg="http://www.w3.org/2000/svg"
   xmlns="http://www.w3.org/2000/svg"
   xmlns:sodipodi="http://sodipodi.sourceforge.net/DTD/sodipodi-0.dtd"
   xmlns:inkscape="http://www.inkscape.org/namespaces/inkscape"
   version="1.1"
   x="0px"
   y="0px"
   width="512px"
   height="512px"
   viewBox="0 0 512 512"
   enable-background="new 0 0 512 512"
   xml:space="preserve"
   id="svg3336"
   inkscape:version="0.91 r13725"
   sodipodi:docname="orgasm.svg"><metadata
     id="metadata3343"><rdf:RDF><cc:Work
         rdf:about=""><dc:format>image/svg+xml</dc:format><dc:type
           rdf:resource="http://purl.org/dc/dcmitype/StillImage" /><dc:title></dc:title></cc:Work></rdf:RDF></metadata><defs
     id="defs3341" /><sodipodi:namedview
     pagecolor="#ffffff"
     bordercolor="#666666"
     borderopacity="1"
     objecttolerance="10"
     gridtolerance="10"
     guidetolerance="10"
     inkscape:pageopacity="0"
     inkscape:pageshadow="2"
     inkscape:window-width="1920"
     inkscape:window-height="1017"
     id="namedview3339"
     showgrid="false"
     inkscape:zoom="1.6015625"
     inkscape:cx="256"
     inkscape:cy="256"
     inkscape:window-x="-8"
     inkscape:window-y="1072"
     inkscape:window-maximized="1"
     inkscape:current-layer="svg3336" /><path
     id="user-6-icon"
     d="M377.055,170.75c0,66.275-53.726,120-120,120s-120-53.725-120-120c0-66.273,53.726-120,120-120  S377.055,104.477,377.055,170.75z M356.101,296.41c-27.968,22.084-62.633,34.34-99.046,34.34c-36.835,0-71.839-12.543-99.934-35.051  C83.067,322.875,50,417.877,50,461.25h412C462,418.25,428.678,323.926,356.101,296.41z" /><ellipse
     style="fill:#ffffff"
     id="path3368"
     cx="221.65854"
     cy="135.49268"
     rx="41.834145"
     ry="40.585365" /><ellipse
     style="fill:#000000"
     id="path3385"
     cx="221.97073"
     cy="110.51707"
     rx="14.04878"
     ry="14.360975" /><ellipse
     style="fill:#ffffff"
     id="path3368-3"
     cx="297.20975"
     cy="134.86829"
     rx="41.834145"
     ry="40.585365" /><ellipse
     style="fill:#000000"
     id="path3385-1"
     cx="297.52194"
     cy="109.89268"
     rx="14.04878"
     ry="14.360975" /><ellipse
     style="fill:#ffffff"
     id="path3422"
     cx="257.24878"
     cy="246.00975"
     rx="12.487804"
     ry="21.229269" /></svg>