<?xml version="1.0" encoding="utf-8"?>

<!-- License Agreement at http://iconmonstr.com/license/ -->

<!DOCTYPE svg PUBLIC "-//W3C//DTD SVG 1.1//EN" "http://www.w3.org/Graphics/SVG/1.1/DTD/svg11.dtd">
<svg version="1.1" xmlns="http://www.w3.org/2000/svg" xmlns:xlink="http://www.w3.org/1999/xlink" x="0px" y="0px"
	 width="512px" height="512px" viewBox="0 0 512 512" enable-background="new 0 0 512 512" xml:space="preserve">
<path id="pin-9-icon" d="M276.332,277.382v128.285h-40.666V277.382C242.328,278.447,249.121,279,256,279
	C262.877,279,269.67,278.447,276.332,277.382z M358,152c0,56.333-45.668,102-102,102c-56.334,0-102-45.667-102-102
	S199.666,50,256,50C312.332,50,358,95.667,358,152z M244.547,92.263c-9.008-7.93-23.873-5.397-33.197,5.656
	c-9.324,11.055-9.58,26.443-0.57,34.373s23.873,5.397,33.199-5.658C253.303,115.581,253.557,100.193,244.547,92.263z
	 M337.522,358.509c-9.419-3.843-19.979-6.878-31.19-9.131v30.511c23.678,5.348,40.956,14.038,41.321,23.397
	c-0.599,15.321-46.52,28.854-91.652,28.854c-45.189,0-91.146-13.53-91.711-28.854c0.345-9.367,17.652-18.063,41.376-23.409v-30.5
	c-11.209,2.253-21.769,5.288-31.188,9.132c-35.429,14.454-40.72,34.259-40.72,44.777s5.291,30.323,40.72,44.777
	c45.562,18.589,117.514,18.575,163.045,0c35.429-14.454,40.72-34.259,40.72-44.777S372.951,372.963,337.522,358.509z"/>
</svg>
