<?xml version="1.0" encoding="utf-8"?>

<!-- The icon can be used freely in both personal and commercial projects with no attribution required, but always appreciated. 
You may NOT sub-license, resell, rent, redistribute or otherwise transfer the icon without express written permission from iconmonstr.com -->

<!DOCTYPE svg PUBLIC "-//W3C//DTD SVG 1.1//EN" "http://www.w3.org/Graphics/SVG/1.1/DTD/svg11.dtd">
<svg version="1.1" xmlns="http://www.w3.org/2000/svg" xmlns:xlink="http://www.w3.org/1999/xlink" x="0px" y="0px"
	 width="512px" height="512px" viewBox="0 0 512 512" enable-background="new 0 0 512 512" xml:space="preserve">
<path id="coin-8-icon" d="M256,50c-90.726,0-164.273,35.719-164.273,79.781c0,44.062,73.548,79.779,164.273,79.779
	s164.273-35.718,164.273-79.779C420.273,85.719,346.726,50,256,50z M267.221,170.583l-0.003,10.685l-20.827-0.035l0.001-9.558
	c-9.989-0.644-23.188-3.326-32.911-7.273l6.894-17.606c9.018,2.602,21.435,5.749,32.157,5.767c2.367,0.005,4.65-0.145,6.799-0.483
	c10.392-1.647,13.013-8.492,0.783-12.38c-10.326-3.426-45.881-7.048-45.876-28.87c0.001-9.041,9.24-21.453,32.172-25.087
	l0.003-10.847l20.826,0.034l-0.001,9.952c8.922,0.469,18.027,1.69,28.535,4.121c-1.048,3.371-5.594,17.993-5.594,17.993
	c-6.769-1.701-17.528-4.587-28.181-4.605c-0.779-0.001-1.559,0.013-2.336,0.044c-14.073,0.556-15.088,8.098-5.6,11.597
	c19.462,6.497,47.652,12.035,47.647,31.307C301.736,160.23,285.931,168.688,267.221,170.583z M382.609,207.714
	c15.209-7.387,27.837-16.023,37.664-25.728v31.751c0,44.06-73.548,79.78-164.273,79.78s-164.273-35.721-164.273-79.78v-31.751
	c9.827,9.704,22.455,18.341,37.664,25.728c34.219,16.618,79.183,25.771,126.609,25.771S348.392,224.332,382.609,207.714z
	 M382.609,375.624c15.209-7.386,27.837-16.022,37.664-25.728v32.323c0,44.062-73.548,79.78-164.273,79.78
	S91.727,426.281,91.727,382.22v-32.323c9.827,9.705,22.455,18.342,37.664,25.728c34.219,16.619,79.183,25.771,126.609,25.771
	S348.392,392.243,382.609,375.624z M382.609,291.669c15.209-7.387,27.837-16.023,37.664-25.728v31.75
	c0,44.061-73.548,79.78-164.273,79.78s-164.273-35.72-164.273-79.78v-31.75c9.827,9.704,22.455,18.341,37.664,25.728
	c34.219,16.618,79.183,25.771,126.609,25.771S348.392,308.287,382.609,291.669z"/>
</svg>
