<?xml version="1.0" encoding="UTF-8" standalone="no"?>
<!-- License Agreement at http://iconmonstr.com/license/ -->

<svg
   xmlns:dc="http://purl.org/dc/elements/1.1/"
   xmlns:cc="http://creativecommons.org/ns#"
   xmlns:rdf="http://www.w3.org/1999/02/22-rdf-syntax-ns#"
   xmlns:svg="http://www.w3.org/2000/svg"
   xmlns="http://www.w3.org/2000/svg"
   xmlns:sodipodi="http://sodipodi.sourceforge.net/DTD/sodipodi-0.dtd"
   xmlns:inkscape="http://www.inkscape.org/namespaces/inkscape"
   version="1.1"
   x="0px"
   y="0px"
   width="512px"
   height="512px"
   viewBox="0 0 512 512"
   style="enable-background:new 0 0 512 512;"
   xml:space="preserve"
   id="svg2"
   inkscape:version="0.48.5 r10040"
   sodipodi:docname="flexible.svg"><metadata
   id="metadata9"><rdf:RDF><cc:Work
       rdf:about=""><dc:format>image/svg+xml</dc:format><dc:type
         rdf:resource="http://purl.org/dc/dcmitype/StillImage" /><dc:title></dc:title></cc:Work></rdf:RDF></metadata><defs
   id="defs7" /><sodipodi:namedview
   pagecolor="#ffffff"
   bordercolor="#666666"
   borderopacity="1"
   objecttolerance="10"
   gridtolerance="10"
   guidetolerance="10"
   inkscape:pageopacity="0"
   inkscape:pageshadow="2"
   inkscape:window-width="708"
   inkscape:window-height="480"
   id="namedview5"
   showgrid="false"
   inkscape:zoom="0.4609375"
   inkscape:cx="256"
   inkscape:cy="256"
   inkscape:window-x="0"
   inkscape:window-y="0"
   inkscape:window-maximized="0"
   inkscape:current-layer="svg2" />
<path
   id="brick-6-icon"
   d="M220.225,190.678h-0.218v16.504c-0.587,27.427,72.321,27.485,71.433,0v-16.487  C289.328,164.752,222.052,164.609,220.225,190.678z M255.933,202.866c-12.405,0-22.498-4.342-22.498-9.682  c0-5.348,10.093-9.69,22.498-9.69c12.423,0,22.498,4.342,22.498,9.69C278.431,198.523,268.355,202.866,255.933,202.866z   M366.158,165.883v-16.479c-2.129-25.943-69.387-26.085-71.215-0.017h-0.218v16.496  C294.139,193.318,367.063,193.377,366.158,165.883z M330.668,142.204c12.406,0,22.498,4.351,22.498,9.69s-10.092,9.682-22.498,9.682  c-12.422,0-22.498-4.342-22.498-9.682S318.246,142.204,330.668,142.204z M145.321,149.379h-0.218v16.504  c-0.587,27.427,72.321,27.485,71.433,0v-16.479C214.424,123.453,147.149,123.319,145.321,149.379z M181.029,161.575  c-12.405,0-22.497-4.351-22.497-9.69s10.092-9.69,22.497-9.69c12.423,0,22.498,4.351,22.498,9.69S193.452,161.575,181.029,161.575z   M220.225,110.285l-0.218,3.453v13.035c-0.587,27.435,72.339,27.493,71.433,0v-16.471C289.311,84.35,222.052,84.216,220.225,110.285  z M278.447,112.782c0,5.34-10.092,9.69-22.498,9.69c-12.422,0-22.497-4.35-22.497-9.69c0-5.339,10.075-9.689,22.497-9.689  C268.355,103.093,278.447,107.443,278.447,112.782z M256,50L67.166,153l0.151,0.318l-0.151-0.083v208.011L256,462l188.834-100.754  V154.308L256,50z M238.833,410.5L101.5,337.24V214.785l137.333,75.549V410.5z M86.312,162.204l169.638-92.623l170.242,93.705  l-169.873,92.438L86.312,162.204z M273.166,290.334L410.5,215.606V337.24L273.166,410.5V290.334z"
   style="fill:#2c3e50;fill-opacity:1"
   inkscape:export-xdpi="185.34"
   inkscape:export-ydpi="185.34" />
</svg>