<?xml version="1.0" encoding="utf-8"?>
<!-- Generator: Adobe Illustrator 17.1.0, SVG Export Plug-In . SVG Version: 6.00 Build 0)  -->
<!DOCTYPE svg PUBLIC "-//W3C//DTD SVG 1.1//EN" "http://www.w3.org/Graphics/SVG/1.1/DTD/svg11.dtd">
<svg version="1.1" id="Layer_1" xmlns="http://www.w3.org/2000/svg" xmlns:xlink="http://www.w3.org/1999/xlink" x="0px" y="0px"
	 viewBox="0 0 32 32" enable-background="new 0 0 32 32" xml:space="preserve">
<g>
	<path fill="#231F20" d="M21.592,5.939c-0.249-0.001-0.49,0.036-0.716,0.106c0.421,0.19,0.714,0.612,0.712,1.104
		c-0.002,0.668-0.545,1.207-1.212,1.205c-0.491-0.002-0.912-0.297-1.1-0.718c-0.071,0.225-0.109,0.466-0.11,0.715
		c-0.004,1.336,1.076,2.422,2.412,2.426c1.335,0.004,2.421-1.075,2.426-2.411C24.008,7.028,22.927,5.942,21.592,5.939z"/>
	<path fill="#231F20" d="M13.724,8.335c-0.668-0.002-1.207-0.545-1.205-1.213c0.002-0.492,0.296-0.912,0.718-1.1
		c-0.226-0.071-0.466-0.109-0.715-0.11c-1.335-0.004-2.423,1.076-2.426,2.412c-0.004,1.336,1.076,2.421,2.412,2.425
		c1.336,0.004,2.422-1.076,2.426-2.412c0.001-0.249-0.037-0.49-0.105-0.716C14.637,8.043,14.215,8.336,13.724,8.335z"/>
	<path fill="#231F20" d="M22.039,1.397c-1.552-0.901-3.197-1.422-5.118-1.428c-1.945-0.005-3.924,0.517-5.492,1.428
		C9.876,0.504,8.541-0.008,6-0.002v10.576c0,11.687,10.043,21.119,21,21.152V10.574V-0.002C25.174-0.008,23.592,0.504,22.039,1.397z
		 M21.571,12.892c-0.891-0.003-1.718-0.265-2.418-0.711l-2.121,2.108l-2.109-2.121c-0.702,0.442-1.531,0.7-2.422,0.698
		c-2.505-0.007-4.529-2.043-4.521-4.548c0.007-2.504,2.042-4.53,4.547-4.522c2.368,0.007,4.305,1.829,4.504,4.145l0.02-0.028
		l0.02,0.028c0.211-2.314,2.159-4.126,4.526-4.119c2.506,0.007,4.53,2.044,4.523,4.548C26.113,10.875,24.077,12.9,21.571,12.892z"/>
</g>
</svg>
