<?xml version="1.0" encoding="utf-8"?>

<!-- License Agreement at http://iconmonstr.com/license/ -->

<!DOCTYPE svg PUBLIC "-//W3C//DTD SVG 1.1//EN" "http://www.w3.org/Graphics/SVG/1.1/DTD/svg11.dtd">
<svg version="1.1" xmlns="http://www.w3.org/2000/svg" xmlns:xlink="http://www.w3.org/1999/xlink" x="0px" y="0px"
	 width="512px" height="512px" viewBox="0 0 512 512" enable-background="new 0 0 512 512" xml:space="preserve">
<path id="light-bulb-16-icon" d="M291.891,370.672h-72.475c-5.08,0-9.198,4.118-9.198,9.198s4.118,9.197,9.198,9.197h72.475
	c5.08,0,9.198-4.117,9.198-9.197S296.971,370.672,291.891,370.672z M290.236,401.295H221.07c-5.079,0-9.197,4.118-9.197,9.197
	c0,5.08,4.118,9.197,9.197,9.197h69.167c5.078,0,9.195-4.117,9.195-9.197C299.433,405.413,295.315,401.295,290.236,401.295z
	 M221.544,431.49c17.908,16.554,19.751,19.879,26.899,19.879h13.768c6.987,0,8.709-3.082,27.552-19.879H221.544z M360.355,211.118
	c0,62.273-53.556,97.171-53.556,146.314h-24.388c0.021-60.568,53.114-92.47,53.114-146.314c0-100.79-159.746-100.948-159.746,0
	c0,53.796,52.172,84.323,53.383,146.314h-24.657c0-49.144-53.555-84.041-53.555-146.314
	C150.951,77.28,360.355,77.145,360.355,211.118z M268.903,84.664h-25.05V60.631h25.05V84.664z M344.531,82.844L322.457,71
	l-11.651,21.771l22.073,11.844L344.531,82.844z M398.698,139.926l-14.592-20.36l-19.795,14.371l14.592,20.36L398.698,139.926z
	 M402.813,274.886l-24.5-9.562l-9.406,23.217l24.5,9.561L402.813,274.886z M413.355,195.052h-26.05v25.05h26.05V195.052z
	 M200.61,92.771l-11.766-21.259l-22.073,11.844l11.766,21.259L200.61,92.771z M147.104,133.937l-20.055-14.369l-14.592,20.36
	l20.055,14.369L147.104,133.937z M142.941,286.352l-10.271-22.846l-23.731,10.741l10.271,22.846L142.941,286.352z M124.11,195.052
	H98.645v25.05h25.466V195.052z"/>
</svg>
