<?xml version="1.0" encoding="utf-8"?>

<!-- The icon can be used freely in both personal and commercial projects with no attribution required, but always appreciated. 
You may NOT sub-license, resell, rent, redistribute or otherwise transfer the icon without express written permission from iconmonstr.com -->

<!DOCTYPE svg PUBLIC "-//W3C//DTD SVG 1.1//EN" "http://www.w3.org/Graphics/SVG/1.1/DTD/svg11.dtd">
<svg version="1.1" xmlns="http://www.w3.org/2000/svg" xmlns:xlink="http://www.w3.org/1999/xlink" x="0px" y="0px"
	 width="512px" height="512px" viewBox="0 0 512 512" enable-background="new 0 0 512 512" xml:space="preserve">
<path id="banknote-6-icon" d="M233.061,202.149c-28.597,4.771-42.322,30.795-30.613,58.143
	c12.345,28.857,47.802,47.314,76.968,40.035c25.864-6.443,37.761-31.289,26.617-57.322
	C294.338,215.669,261.664,197.376,233.061,202.149z M270.292,276.278l2.714,6.346l-9.496,1.586l-2.435-5.68
	c-4.723,0.391-11.419-0.186-16.859-1.777l-1.336-10.992c5.379,0.953,14.055,2.213,19.112,0.127c4.312-1.777,3.768-6.047-2.792-7.416
	c-5.583-1.24-22.716-0.643-28.268-13.613c-2.294-5.373-1.244-13.461,8.29-17.395l-2.753-6.443l9.497-1.586l2.533,5.916
	c4.186-0.416,8.65-0.387,14.066,0.248c0.371,2.082,2.017,11.119,2.017,11.119c-3.774-0.523-9.996-1.502-15.068-0.354
	c-0.091,0.021-0.181,0.043-0.269,0.064c-5.966,1.486-4.476,5.928,0.662,7.258c10.526,2.361,24.792,3.479,29.691,14.926
	C283.398,267.464,278.34,273.704,270.292,276.278z M385.236,123.884c-17.087,11.121-34.837,24.039-68.201,32.348
	c-61.74,15.377-127.188,0.811-186.855,15.67c-45.235,11.27-67.55,34.787-80.18,47.027c25.07,54.938,61.946,135.729,77.215,169.188
	c17.606-14.988,35.13-32.27,73.306-41.773c57.866-14.41,124.438-0.428,186.914-15.988c40.356-10.053,61.193-27.852,74.565-38.271
	L385.236,123.884z M177.949,324.292c-13.617-11.91-40.074-20.242-57.856-18.141c-7.131-15.623-14.818-32.469-21.611-47.354
	c11.842-11.982,21.027-36.08,21.769-55.004c62.438-23.582,139.282-0.209,216.522-24.502c13.883,12.779,35.535,22.121,54.014,23.111
	l21.882,47.945c-12.071,14.078-20.28,32.334-22.923,50.775C324.482,321.188,247.675,300.429,177.949,324.292z"/>
</svg>
