<?xml version="1.0" encoding="utf-8"?>

<!-- License Agreement at http://iconmonstr.com/license/ -->

<!DOCTYPE svg PUBLIC "-//W3C//DTD SVG 1.1//EN" "http://www.w3.org/Graphics/SVG/1.1/DTD/svg11.dtd">
<svg version="1.1" xmlns="http://www.w3.org/2000/svg" xmlns:xlink="http://www.w3.org/1999/xlink" x="0px" y="0px"
	 width="512px" height="512px" viewBox="0 0 512 512" enable-background="new 0 0 512 512" xml:space="preserve">
<path id="tools-10-icon" d="M347.594,259.237l-78.206-33.75c-3.533-1.533-7.279-2.516-11.11-2.922l-7.757-0.816l-21.091-18.576
	l5.568-12.848l28.28,1.986l5.898,5.102c2.913,2.52,6.195,4.58,9.729,6.111l33.74,14.561L347.594,259.237z M315.733,143.716
	c-9.948-11.664-24.509-18.383-39.839-18.383h-22.34l114.934,135.334h46.998L315.733,143.716z M327.861,177.296
	c-1.678,1.43-4.205,1.23-5.638-0.455l-18-21.168c-1.432-1.682-1.228-4.207,0.456-5.637c1.682-1.434,4.207-1.227,5.638,0.455
	l18,21.168C329.749,173.341,329.545,175.866,327.861,177.296z M102.362,260.683c0.213-0.002,0.424-0.016,0.638-0.016h37.44
	l25.812-39.459c2.749-4.203,7.208-7.004,12.189-7.648c9.435-1.227,18.298-6.406,23.913-14.994
	c7.312-11.176,7.138-25.082,0.713-35.82l-16.623,25.412c-8.101,2.197-23.429-7.83-24.66-16.131l16.624-25.412
	c-12.414-1.584-25.227,3.828-32.537,15.004c-5.617,8.586-6.814,18.781-4.154,27.918c1.405,4.826,0.627,10.025-2.125,14.232
	L102.362,260.683z M409,310.667c12.683,0,23,10.317,23,23s-10.317,23-23,23H103c-12.683,0-23-10.317-23-23s10.317-23,23-23H409
	 M409,280.667H103c-29.271,0-53,23.729-53,53s23.729,53,53,53h306c29.271,0,53-23.729,53-53S438.271,280.667,409,280.667z
	 M126.42,333.665c0-7.687-6.234-13.92-13.922-13.92c-7.687,0-13.922,6.233-13.922,13.92c0,7.691,6.235,13.922,13.922,13.922
	C120.186,347.587,126.42,341.356,126.42,333.665z M414.635,333.667c0-7.688-6.235-13.921-13.922-13.921s-13.922,6.233-13.922,13.921
	c0,7.689,6.235,13.922,13.922,13.922S414.635,341.356,414.635,333.667z"/>
</svg>
